<?xml version="1.0" encoding="UTF-8" standalone="no"?>
<svg
   xmlns:dc="http://purl.org/dc/elements/1.1/"
   xmlns:cc="http://creativecommons.org/ns#"
   xmlns:rdf="http://www.w3.org/1999/02/22-rdf-syntax-ns#"
   xmlns:svg="http://www.w3.org/2000/svg"
   xmlns="http://www.w3.org/2000/svg"
   viewBox="0 0 116.8 116.8"
   version="1.1"
   id="Ebene_1">
  <metadata
     id="metadata237">
    <rdf:RDF>
      <cc:Work
         rdf:about="">
        <dc:format>image/svg+xml</dc:format>
        <dc:type
           rdf:resource="http://purl.org/dc/dcmitype/StillImage" />
        <dc:title></dc:title>
      </cc:Work>
    </rdf:RDF>
  </metadata>
  <defs
     id="defs235" />
  <rect
     ry="16.13817"
     y="6.1627787e-08"
     x="0.20172712"
     height="117.40518"
     width="116.8"
     id="rect4976"
     style="fill:#faedc8;stroke-width:35.71699905;stroke-miterlimit:4;stroke-dasharray:none;fill-opacity:1" />
  <!-- Generator: Adobe Illustrator 30.0.0, SVG Export Plug-In . SVG Version: 2.1.1 Build 123)  -->
  <g
     transform="matrix(0.81001726,0,0,0.81001726,11.094992,11.094992)"
     style="display:inline"
     id="g192">
    <circle
       style="fill:#327540;stroke:#1d2f30;stroke-width:2.5999999"
       id="circle14"
       r="57.099998"
       cy="58.400002"
       cx="58.400002" />
    <path
       style="fill:#1d2f30"
       id="path16"
       d="m 83.8,17.9 c 2.8,1.7 4.8,4.4 5.7,7.4 0.9,3 0.3,2.5 0.4,2.6 0.1,0.1 1.2,0.3 1.4,0.4 3.3,2.1 4.7,4.5 5.2,8.3 0.5,3.8 -0.1,2.3 0,2.4 0.1,0.1 1.5,0.8 1.9,1.1 3.1,2.9 3.6,7.2 2.1,11 6.3,4.8 4.3,15.1 -0.4,20.3 3.5,5.7 -0.1,13.1 -6.1,15.4 -6,2.3 -3,0.5 -3.1,0.6 -0.3,0.2 -0.9,1.2 -1.3,1.5 -4.2,2.8 -8,2.4 -12.5,0.9 -1.5,3.1 -5.8,4.6 -9,4 -7.2,-1.2 -11.8,-14.2 -18.7,-2.2 -0.9,1.6 -2.2,6.5 -2.9,7.3 -0.7,0.8 -1.2,0.4 -1.7,0.4 C 39.1,95.5 33.2,92 27.6,88 22,84 23.4,85.1 23.2,84.5 c -0.6,-1.7 2.7,-3.2 3.7,-4.1 3,-2.7 6.6,-6.7 4.4,-11 C 28.8,64.5 23.6,66.3 19.8,63.1 16,59.9 15.9,56 17.2,52.5 c 1.3,-3.5 0.8,-1 0.9,-1.3 0.1,-0.3 -2,-2.9 -2.3,-4.2 -1.4,-5.5 0.9,-11.2 2.7,-16.2 1.8,-5 0.9,-5 2.5,-4.3 1.6,0.7 4.4,6.1 5.4,5.1 -0.2,-6.5 4.7,-13.5 11,-15.2 6.3,-1.7 5.4,0.5 8,-1.3 2.6,-1.8 0.8,-1.1 1.2,-1.3 5.3,-3.5 10,-4.4 15.4,-0.2 5.4,4.2 1,1.4 1.1,1.4 0.1,0 2,-0.7 2.6,-0.8 2.5,-0.3 4.5,0.5 6.6,2 2.1,1.5 0.8,1.1 0.9,1.1 0.2,0 1.4,-0.6 1.7,-0.6 3.2,-0.7 6.4,-0.4 9.3,1.3 z" />
    <g
       id="g190">
      <g
         id="g78">
        <path
           style="fill:#fffdef"
           id="path18"
           d="m 92,76.4 c 0.4,-0.5 0.6,-0.9 0.7,-1.5 0.7,0 1.5,0 2.2,-0.3 0.7,-0.3 3.4,-2 3.8,-1.7 0.4,0.3 0.9,2.4 1,2.9 0.3,3.9 -2.6,8 -6.2,9.4 -3.6,1.4 -2.4,1 -2.4,-0.6 0,-2.9 4.2,-4 4.2,-5.4 -0.8,-1.2 -2,-1.6 -3.2,-2.7 z" />
        <path
           style="fill:#fffef6"
           id="path20"
           d="M 97.7,50.4 C 98,48.7 96.2,49.7 95.2,48 c -1,-1.7 -0.6,-2.2 -0.6,-2.5 0,-0.6 0.7,-1.9 0.1,-2.2 0.2,-0.3 0.6,-2.8 0.8,-2.8 3.7,1.8 5.1,6.7 2.9,10.2 -0.1,0 -0.7,-0.3 -0.8,-0.3 z" />
        <path
           style="fill:#faeeca"
           id="path22"
           d="m 97.7,50.4 c -1.1,-0.1 -2.2,-0.1 -3.3,-0.2 0.5,-1 -1.5,-4.2 -1.4,-4.4 0.1,-0.2 1.5,-1.8 1.8,-2.4 0.6,0.2 -0.1,1.6 -0.1,2.2 0,0.6 0.4,2.2 0.6,2.5 1,1.7 2.8,0.7 2.5,2.4 z" />
        <g
           id="g34">
          <path
             style="fill:#fffdee"
             id="path24"
             d="m 91.3,44.5 c 1.1,-1.1 -0.6,-1.1 -1.3,-1.7 -1.8,-1.6 -1.1,-4.4 -2.5,-6.2 -0.2,0.2 0,0.6 0,0.7 0,0.1 0,0.3 0,0.4 0.2,1.7 -0.2,4.6 -1.4,5.8 -1.2,1.2 -1.8,0.7 -2.3,1.1 -0.5,0.4 -1.2,1.7 -1.4,1.9 -0.2,0.2 -2,-0.2 -2.9,0.1 -4.8,-0.5 -3,-6.1 -5.9,-8.7 -2.9,-2.6 -8.2,-0.8 -10.5,-5.6 -2.3,-4.8 0.7,-7 4.3,-7.5 1.9,0.4 3.4,1.1 4.7,2.7 l -0.6,-1.1 c -0.5,-0.5 -1,-0.9 -1.6,-1.2 h 0.7 c -1.1,-1.2 -2.8,-2 -4.5,-2.4 -1.7,-0.4 -4,0 -5.1,-0.4 -1.1,-0.4 -2.3,-1.9 -3.5,-2.5 -1.2,-0.6 -4.7,-1.1 -5,-1.4 -0.6,-0.8 1.3,-2.2 1.9,-2.5 1.5,-0.7 3.5,-0.4 5.1,0 -2.3,-2.3 -6,-2.8 -9,-1.6 -3,1.2 -3,1.7 -2.9,1.9 0,0.3 1.3,0.6 0.9,1.2 -0.3,-0.3 -1.9,-1.1 -1.8,-1.3 3.5,-3.8 9.9,-4.6 13.8,-0.9 3.9,3.7 0.2,2.1 -0.4,4.1 2.3,-3.1 7.2,-4.4 10.4,-1.9 3.2,2.5 1.8,2.1 0.8,3.6 4.8,-5.2 13.4,-2.3 15.9,3.8 2.5,6.1 1.2,4.4 -0.4,5.3 8.1,-2 10,11 5.5,15.4 -0.4,-0.2 -0.7,-0.6 -1.1,-0.7 z" />
          <path
             style="fill:#f8ebc5"
             id="path26"
             d="m 67.5,24.8 c -3.6,0.4 -5.9,4.1 -4.3,7.5 1.6,3.4 7,2.4 10.5,5.6 3.5,3.2 1.1,8.3 5.9,8.7 -0.6,0.2 -2.1,1.2 -2.2,1.2 -0.1,0 -1.6,-1.4 -1.7,-1.5 0,-0.1 -0.2,-2.7 -0.4,-3.3 -1.7,-4.9 -6.5,-6.9 -11.4,-6.1 -4.9,0.8 -1.4,0.6 -1.5,0.6 -0.1,0 -1.5,-0.8 -1.6,-0.9 0,-0.1 0.6,-2.4 0.5,-3.3 -0.1,-0.9 -1.4,-3 -1.4,-3.1 0,-0.1 0.7,-1 0.8,-1.5 0.3,-1.2 0,-1.8 1,-2.7 1,-0.9 4.1,-1.5 5.8,-1.2 z" />
          <path
             style="fill:#f9edc8"
             id="path28"
             d="m 70,25.1 c -2.8,-1.8 -6.4,-1.4 -9.2,0.1 -0.7,-3 -3.7,-5.1 -6.6,-5.3 -2.9,-0.2 -3.5,0.8 -3.7,0.7 -0.2,-0.1 -0.8,-2.3 -1.9,-3.3 0.4,-0.6 -0.9,-0.8 -0.9,-1.2 0,-0.4 2.6,-1.7 2.9,-1.9 3,-1.2 6.7,-0.7 9,1.6 -1.6,-0.3 -3.6,-0.7 -5.1,0 -1.5,0.7 -2.5,1.7 -1.9,2.5 0.6,0.8 4,0.8 5,1.4 1,0.6 2.3,2 3.5,2.5 1.2,0.5 3.7,0 5.1,0.4 1.4,0.4 3.3,1.2 4.5,2.5 z" />
          <path
             style="fill:#f7ebc4"
             id="path30"
             d="m 91.3,44.5 c -1.2,-0.6 -2.2,-1.2 -3.7,-1.2 0.5,-2.1 0.5,-3.7 0.2,-5.8 -0.3,-2.1 0.3,-0.5 -0.2,-0.3 0,-0.1 -0.3,-0.6 0,-0.7 1.4,1.8 0.7,4.6 2.5,6.2 1.8,1.6 2.4,0.6 1.3,1.7 z" />
          <path
             style="fill:#7c745e"
             id="path32"
             d="m 87.8,37.6 v 0 c 0,0 0,-0.1 0,-0.3 0.5,-0.2 0.1,0.2 0.2,0.3 z" />
        </g>
        <g
           id="g50">
          <path
             style="fill:#faedc8"
             id="path36"
             d="m 52.2,46 c 0.1,0 0.2,0.2 0.3,0.2 -14.2,0 -6.3,22.9 4.8,13.4 -1.7,4.4 0.2,8.4 4.8,9.8 4.6,1.4 1.4,0 1.5,0 0.6,0.3 0.4,0.9 1,1.2 -2.5,0.5 -4.2,0.1 -6.5,-1 4.2,3.3 10.7,2 12.8,-3 0.3,-0.7 0.1,-1.8 0.7,-2.3 0.7,4.2 -2,8.3 -6.1,9.6 -6.7,2.2 -14.6,-4 -11.2,-11.1 -1.9,3.2 -6.2,3.4 -9.1,1.5 -9.6,-6 -4.6,-23.4 7.1,-18.2 z" />
          <path
             style="fill:#faedc8"
             id="path38"
             d="m 52.8,46.4 c 0,-0.2 -0.3,-0.4 -0.5,-0.5 -1,-0.7 -2.1,-1.4 -3.4,-1.6 -0.2,-1.5 0.8,-3.3 1.7,-4.4 0.8,0.6 2.1,-0.9 3.1,-1.3 2.4,-1.1 5.8,-0.7 7.6,1.4 -2.8,-0.6 -6.5,1 -6.2,4.3 0.3,3.3 2.7,1.1 4.5,1 -1.8,0.7 -3,2.1 -3.4,4.1 -0.6,-2 -1.9,-2.1 -3.4,-2.9 z" />
          <g
             id="g48">
            <path
               style="fill:#fffdf3"
               id="path40"
               d="m 64.6,70.6 c -0.6,-0.3 -0.3,-0.9 -1,-1.2 -0.7,-0.3 -1.2,0 -1.5,0 C 57.5,68 55.7,64 57.3,59.6 46.2,69.1 38.3,46.3 52.5,46.2 c 0,0 0.1,0.1 0.2,0.2 1.5,0.8 2.8,0.9 3.4,2.9 0.4,-1.9 1.6,-3.3 3.4,-4.1 -1.8,0 -4.2,2 -4.5,-1 -0.3,-3 3.4,-4.9 6.2,-4.3 -1.8,-2.1 -5.1,-2.4 -7.6,-1.4 -2.5,1 -2.3,1.9 -3.1,1.3 3.2,-3.7 10.2,-4 12.5,0.8 0,-1.4 -1.2,-1.5 0.6,-2.2 3.2,-1.3 7.4,0.7 9.3,3.2 1.9,2.5 2.5,5.4 0.1,4.8 7.3,3 5.7,13.9 -0.9,16.8 -0.3,0.1 -1.2,0 -1.3,0.1 0,0 0,1.8 -0.2,2.5 -1.1,2.7 -3.5,4.1 -6.2,4.6 z" />
            <path
               style="fill:#8d907b"
               id="path42"
               d="m 52.8,46.4 c 0,0 -0.1,-0.1 -0.2,-0.2 -0.1,0 -0.2,-0.2 -0.3,-0.2 v 0 c 0.2,0 0.6,0.2 0.5,0.4 z" />
            <path
               style="fill:#27322b"
               id="path44"
               d="m 70.2,48.5 v 0 C 68.8,47 67,46 64.9,45.6 c 2.1,-0.2 4.2,1.3 5.4,2.9 z" />
            <path
               style="fill:#ada183"
               id="path46"
               d="m 70.2,48.6 v 0 c 0.2,0.2 0.5,0.5 0.6,0.9 -0.4,0 -0.6,-0.8 -0.7,-0.9 z" />
          </g>
        </g>
        <g
           id="g66">
          <path
             style="fill:#f8ebc6"
             id="path52"
             d="m 86.8,62.5 c -6.2,-4.9 -15.7,2 -10.2,9 L 79.3,70 c 0.7,1.4 1.9,2.6 3.5,3 2.3,0.6 4.8,-1.9 7.3,-0.9 -1.6,1 -2.9,0.9 -4.5,1.6 -1.6,0.7 -2.2,1.5 -3.1,1.9 -2.9,1.1 -1.8,-0.6 -3.1,-2 -1.3,-1.4 -3.3,-1.9 -5.1,-1.5 -1.8,0.4 -3.1,2.2 -4,0.9 -0.9,-1.3 1.5,-2.9 1.7,-3.8 0.2,-0.9 -0.1,-4.5 0,-4.7 0.1,-0.2 2.9,-1.1 3.8,-1.8 2.1,-1.8 1.7,-3.6 4.9,-3.6 3.2,0 4.8,1.3 6.2,3.6 z" />
          <path
             style="fill:#faeeca"
             id="path54"
             d="m 87.2,62.2 c -1.3,-3 -4.9,-5.1 -8.2,-4.4 0.6,-2.4 0.7,-4.7 0,-7 -0.5,-1.9 -2.1,-2.4 1,-3.6 3.1,-1.2 2.7,0 2.8,-0.1 0.1,-0.1 0.5,-0.8 0.7,-1 0.1,0.3 0.2,0.2 0.5,0.2 2.3,-0.7 3.9,-1.2 5.8,0.9 -0.9,0.3 -1.2,2.1 -1.5,2.3 -0.3,0.2 -2.6,0 -3.9,1.2 -4.4,4.2 1.7,7.3 2.8,10.8 1.1,3.5 0.2,0.7 -0.1,0.8 z" />
          <path
             style="fill:#f7e9c2"
             id="path56"
             d="m 91.7,73.9 c 0.4,0.4 0.4,0.5 1.1,0.4 -0.7,0.8 -0.1,0.5 -0.1,0.6 -0.1,0.6 -0.3,1 -0.7,1.5 -0.8,-0.9 -1.4,-1.9 -2.1,-2.9 1.2,-0.9 1.8,-2.3 2.6,-3.5 0.8,-1.2 0.7,-1.3 1.2,-1.6 0,1.8 -3.5,4 -2,5.4 z" />
          <g
             id="g64">
            <path
               style="fill:#fffef6"
               id="path58"
               d="m 91.7,73.9 c -1.4,-1.4 2,-3.6 2,-5.4 -0.5,0.3 -0.9,1.1 -1.2,1.6 -0.6,0.9 -1.5,1.5 -2.4,2.1 -2.5,-0.9 -4.9,1.6 -7.3,0.9 -2.4,-0.7 -2.8,-1.6 -3.5,-3 l -2.7,1.5 c -5.5,-7 4,-13.9 10.2,-9 0.3,0.5 0.4,1 0.8,1.3 -0.1,-0.4 -0.3,-1.2 -0.4,-1.6 0.3,0 0.2,-0.6 0.1,-0.8 -1.2,-3.4 -7.2,-6.5 -2.8,-10.8 1.2,-1.2 3.7,-1.1 3.9,-1.2 0.2,-0.1 0.6,-2 1.5,-2.3 -1.9,-2.1 -3.5,-1.6 -5.8,-0.9 -2.3,0.7 -0.4,0.1 -0.5,-0.2 4.7,-3.8 11.2,0.6 9.8,6.3 0.7,-1.6 3,-1.4 4.4,-0.8 6.1,2.6 5.7,11.3 2.9,16.2 -2.8,4.9 -5.3,7.1 -8.9,6.1 z" />
            <path
               style="fill:#161f20"
               id="path60"
               d="m 92.9,54 v 0 c 3.1,0 4.6,2.9 3.8,5.7 0,-2.9 -0.7,-5 -3.8,-5.7 z" />
            <path
               style="fill:#d1ccb2"
               id="path62"
               d="m 92.9,54 c 0,0 -0.4,0.3 -0.5,0 h 0.5 c 0,0 0,0 0,0 z" />
          </g>
        </g>
        <g
           id="g76">
          <path
             style="fill:#fffdf2"
             id="path68"
             d="m 55.9,35.7 c 0.3,-0.4 -0.4,-0.4 -0.5,-0.4 -1.3,0 -4.9,0.7 -5.8,1.5 -1.9,1.6 -2.5,4.8 -5.1,5.8 -2.6,1 -4.7,0.3 -5.2,-0.6 -0.5,-0.9 0.5,-2.3 0.4,-2.4 -0.1,-0.1 -0.9,-0.7 -1,-0.8 -2.8,-4.2 -2.8,-8.7 0.7,-12.5 3.5,-3.8 1.7,-1.1 1.7,-1.2 0,-0.1 -0.4,-0.5 -0.3,-1 0.5,-2.3 1,-1.5 0.7,-4.3 1.9,-4.7 9.5,-2.1 7.6,2.6 4.8,-3.7 12.9,1.3 10.1,7.2 -0.2,0 -2.5,-1.4 -3.1,-0.9 l 1.2,0.3 c 2.1,1 3.9,3.6 3.2,6 -0.7,2.4 -0.9,0.9 -2.5,0.8 -1.6,-0.1 -1.4,0 -2.1,0 z" />
          <g
             id="g74">
            <path
               style="fill:#faefcd"
               id="path70"
               d="m 41.5,19.7 c 0.3,2.8 -0.2,2 -0.7,4.3 -0.5,2.3 0.3,1 0.3,1 0,0.1 -1.4,0.9 -1.7,1.2 -3.5,3.9 -3.5,8.4 -0.7,12.5 2.8,4.1 0.9,0.7 1,0.8 0,0.1 -0.6,2.2 -0.4,2.4 0.5,0.9 4.3,1 5.2,0.6 2.7,-1 3.2,-4.2 5.1,-5.8 1.9,-1.6 4.5,-1.5 5.8,-1.5 1.3,0 0.9,0 0.5,0.4 -3.1,0.3 -6.1,2.3 -7.6,5.2 -1.5,2.9 -0.5,2.8 -0.6,2.9 -0.1,0.1 -2.7,0.5 -3.4,0.9 -2.4,1.2 -4.2,3.5 -5.2,5.9 -4,-1.4 -2,-2 -1.7,-4.9 0.3,-2.9 -0.8,-4.5 -2.8,-5.4 -2,-0.9 -2.7,0 -2.8,0 -0.2,-0.2 0,-3.7 -0.7,-4.9 -0.7,-1.2 -2.4,-1.9 -3,-2.7 -0.6,-0.8 0,-3.1 0.1,-3.5 1.2,-6.2 6.8,-12.2 13.5,-11.1 0,0.6 0,1.1 0,1.7 z" />
            <path
               style="fill:#203132"
               id="path72"
               d="M 35.8,27.1 C 33,30.2 32.6,34.6 34.8,38.2 31,35 32.3,29.9 35.8,27.1 Z" />
          </g>
        </g>
      </g>
      <g
         id="g188">
        <path
           style="fill:#70b738"
           id="path80"
           d="m 20.8,28.5 c 0.2,1.1 1.2,2.7 2,3.4 3.4,3.1 6.8,1.7 7.4,7.4 0.6,5.7 -0.2,0.4 0.3,0.2 0,0.7 0,1.4 0.3,2.1 0.4,0.3 0.6,0.2 1,0.2 3.7,-0.3 3.9,3.7 2.9,6.3 h 0.7 c -0.2,0.9 -0.2,0.9 -0.2,2 0,1.1 0.5,1.7 0.5,2.5 0,1.5 -3.4,4.9 -4.8,2.9 -0.7,-1.9 0,-4.3 0.6,-6.3 0.6,-2 1.5,-3.5 1,-3.2 0,0.2 -0.1,0.6 -0.2,0.8 h -0.2 c 0,0 0,-0.5 0.2,-0.7 -0.5,0.5 -3,5.6 -3.4,5.4 -0.4,-1.6 -2.3,-4.2 -2.3,-5.9 0,-1.7 1.5,-6 1.2,-6.1 l -2.2,3.2 c -1.1,-3.1 -1.9,-6.3 -3.7,-9.1 1.9,3.5 2.3,7.4 2.8,11.3 l -2,-1.3 c -0.3,-0.3 0,-0.3 -0.2,-0.5 -0.2,-0.2 -0.3,-0.3 -0.4,-0.1 -0.3,-0.3 -0.6,-0.8 -1,-0.7 -0.3,-0.3 -1.5,-1.8 -1.7,-1.7 1.3,2 3.1,3.6 4.5,5.5 -0.2,1.4 1.4,2.9 0.8,4.3 -1.8,-0.9 -3.8,-1.3 -5.5,-2.6 -2.1,-2.3 -1.7,-8.1 -0.8,-10.9 h -0.7 c 0.8,-2.9 2,-5.5 2.5,-8.5 l 0.4,0.2 z" />
        <path
           style="fill:#6eb638"
           id="path82"
           d="m 94.1,79.5 c -0.2,0.4 -1.8,1.2 -2.3,1.6 -2.7,2.5 -0.9,3.3 -2.1,5.4 l -2.9,1.6 -3.7,0.9 c -0.8,-0.8 -0.5,-0.3 -1.1,-0.5 -2.9,-1.1 -5.5,-2.7 -7.6,-5 0.9,0 3.1,-0.6 3.8,-0.5 0.7,0.1 1.3,1 1.5,1 0.5,0.2 5.6,1.9 5.7,1.6 -1.6,-1 -3.8,-1.3 -4.5,-3.2 3.3,-1.1 6.6,-1.8 9.9,-2.7 3.3,-0.9 0.2,0 0.4,0 0.2,0 0.2,0 0.3,0 v -0.3 c -0.1,0 -0.8,0.1 -0.9,0.1 -0.4,0 -0.4,0 -0.9,0 -1.1,-0.8 -11.4,2.8 -13.3,1.5 0.6,-0.2 0.5,-0.4 0.9,-0.6 0.4,-0.2 0.3,0.2 0.4,0.1 0.1,-0.1 0.9,-1.1 1.3,-1.5 0.7,-0.5 2.8,-1.1 2.5,-1.9 0.4,0 1.5,-0.6 1.9,-0.8 0.2,0.4 0.3,0.3 0.6,0.1 0.9,-0.4 1.8,-1.3 2.7,-1.5 2.5,-0.7 2.7,1.4 4.2,2.6 1.5,1.2 2.3,1 3.1,2 z" />
        <path
           style="fill:#f3f5d3"
           id="path84"
           d="m 48.7,73.9 c -0.3,0.5 -0.5,1.7 -0.6,2.3 L 50,74.5 c 0,0 0.5,0.9 0.6,1.1 -2,2.2 -3.5,4.3 -5,6.9 -1.5,2.6 -2.4,5 -3.6,7.5 -0.3,0.6 -1.7,4.1 -2,4 -2.4,-1.7 -4.8,-3.2 -7.2,-4.9 1.3,-1.4 2.7,-2.8 3.9,-4.3 1.9,-2.3 8.1,-12 10.8,-11.8 2.7,0.2 1,0.3 1.1,0.9 z" />
        <path
           style="fill:#72b738"
           id="path86"
           d="m 19.3,47.7 c 1.7,1.8 4.6,2.5 6.6,4.3 l 2.2,5.9 -5.9,-1 c -0.1,0 -0.7,-0.3 -0.8,0 -0.1,0 -0.5,-0.5 -0.6,-0.2 0.4,0.3 0.8,0.6 1.2,0.8 l 1.1,0.9 c -1.2,0.4 0.3,0.3 0.7,0.5 1.5,0.6 4.7,2.3 1.3,2.8 -3.4,0.5 -4.2,-1.4 -6.2,-2.4 -1.3,-2.6 -1.4,-5.9 0.9,-8 0,-1.1 -1.1,-1.6 -1.7,-2.4 -2,-3.2 -1.4,-8.5 -0.4,-12.1 h 0.7 c -0.9,2.8 -1.3,8.7 0.8,10.9 z" />
        <path
           style="fill:#b6d054"
           id="path88"
           d="m 50,74.3 -1.1,-0.7 c -0.1,0 0,0.2 -0.2,0.4 -0.1,-0.6 -0.5,-0.9 -1.1,-0.9 -2.6,-0.2 -8.9,9.5 -10.8,11.8 -1.9,2.3 -2.6,2.9 -3.9,4.3 -0.4,-0.3 -2.9,-1.9 -3,-2.1 4.1,-4 8.3,-8.2 11.2,-13.2 2.1,-1.7 5.1,-4.7 8.1,-3.1 3,1.6 0.8,2.3 0.8,3.6 z" />
        <path
           style="fill:#aaca4a"
           id="path90"
           d="m 79,81.7 c -7.3,1.2 -14.9,-0.9 -22.1,0.6 -7.2,1.5 -9.8,4.4 -12.4,9.6 -0.6,1.1 -0.8,3 -1.5,3.9 -0.5,-0.3 -2.2,-1.3 -2.3,-1.8 -0.1,-0.5 1.4,-3.3 1.5,-4.1 1.1,-2.5 2.2,-5.1 3.6,-7.5 2.5,-3.4 5.5,-5.2 9.4,-6.4 l 2.3,1.1 c -7.3,1.5 -12.3,7.3 -14.7,14.2 -2.4,6.9 -1.1,3.1 -0.5,3.3 0.6,0.2 1.4,-2.3 1.7,-2.9 3.3,-6.1 7.7,-10.2 14.8,-11 4.8,-0.5 9.5,0.7 14.3,1 4.8,0.3 4,0 6,0 z" />
        <path
           style="fill:#65ae34"
           id="path92"
           d="m 83,89 c 0.1,0.1 0.4,0.1 0.3,0.3 -0.8,0 -1.7,0 -2.5,-0.2 -1.8,-0.4 -3.2,-1.6 -4.9,-0.8 -3.7,1.7 -3,3.4 -8.4,2.9 l -2.7,-2.8 c -0.3,-0.9 0.2,-1.8 1.1,-2 0.5,0.4 1.2,1.1 1.8,1.3 0.7,0.7 1.4,1.4 2.2,2 V 89.4 C 68.4,88 67.4,86.1 66,84.7 c 1.9,-1 4.8,-0.3 6.6,-0.7 1.8,-0.4 0.4,-0.1 0.4,-0.5 0.4,0 0.8,0 1.2,0 2.1,2.3 4.7,3.9 7.6,5 2.9,1.1 0.2,-0.3 1.1,0.5 z" />
        <path
           style="fill:#61a934"
           id="path94"
           d="m 80.4,77.1 c 0.3,0 0.9,0 1.2,0 0.3,0.9 -1.8,1.5 -2.5,1.9 -0.7,0.4 -1.2,1.3 -1.3,1.5 -0.1,0.2 -0.3,-0.2 -0.4,-0.1 C 77,80.7 77,80.8 76.5,81 74.7,81.7 71.9,81 70,80.8 l 5.2,-4.5 c 0.1,-0.1 0.4,-0.5 0.3,-0.7 -2.5,1.2 -5.5,4.1 -8.2,4.7 -2.7,0.6 -4.1,-0.4 -5.8,-0.2 l 1.3,-1.6 c 0.6,-0.4 1.2,-0.8 1.6,-1.4 0.3,0 1.3,0.5 1.4,0.5 4.2,0.2 4.5,-1.4 7.7,-3.1 3.2,-1.7 1.9,-0.5 2.6,-1 2.9,0.8 2.2,3.6 4.1,4 1.9,0.4 0.2,-0.2 0.2,-0.2 z" />
        <path
           style="fill:#b3ce52"
           id="path96"
           d="m 35.6,76.7 c 2.5,-2.1 3.8,-8.3 3.8,-11.5 0,-3.2 0.1,-1.1 -0.5,-0.8 0.2,-0.7 0,-1.2 0.2,-1.7 0.2,-0.5 0,-0.6 0,-0.6 1.3,3 1.2,6.1 1.1,9.2 -0.1,3.1 -0.1,0.4 0.2,0.4 -1.8,6.3 -6.8,10.4 -11.6,14.5 l -3.4,-2.3 0.2,-0.2 c 0.4,0.2 1.1,0.9 1.4,1 0.3,0.1 5.4,-4.7 6,-5.4 1.6,-2.3 2,-4.5 1.9,-7.2 0.3,0 0.4,-0.4 0.4,-0.6 0.6,-3.5 -2.2,-9.7 -3.7,-13 -1.5,-3.3 -1.5,-2.3 -1.6,-3.8 4.1,7.5 8.4,16 4,24.3 0.7,-0.6 1.1,-1.4 1.5,-2.2 z" />
        <path
           style="fill:#9cc549"
           id="path98"
           d="m 50.7,75.6 c 0,-0.2 -0.6,-1 -0.6,-1.1 0,0 0,-0.2 0,-0.2 0,-1.3 1.3,-2.4 -0.8,-3.6 -2.1,-1.2 -6,1.4 -8.1,3.1 1.5,-2.6 2.2,-5.2 3,-8 2.2,1.5 4.8,1.8 7.4,1.5 0.2,2 1.2,3.6 2.5,5.1 -1.2,1 -2.3,2 -3.3,3.2 z" />
        <path
           style="fill:#4c922e"
           id="path100"
           d="m 64.3,77 c -0.4,0 -0.7,0.4 -1,0.5 -1.6,0 -4.9,0.3 -4.8,2.4 -2.5,0.5 -4.8,0.7 -7.1,1.8 1.5,-2 5.1,-2.9 6.7,-4.4 1.6,-1.5 0.3,0 0.4,-0.1 V 77 c -0.5,0.1 -0.8,0 -1.2,0.1 L 55,76 c 3.7,-1.1 2.2,-0.5 5.5,-0.1 3.3,0.4 3.8,0 5.4,-0.4 1.6,-0.4 2.4,-1.2 2.6,-1.2 0.4,0 0.8,0.8 1.2,1 0.6,0.2 3.2,-1.7 4.3,-2 1.1,-0.3 1.7,0 2,0 -0.7,0.6 -1.7,0.6 -2.6,1 -3.2,1.7 -3.6,3.3 -7.7,3.1 -4.1,-0.2 -1.1,-0.5 -1.4,-0.5 z" />
        <path
           style="fill:#a6c949"
           id="path102"
           d="m 34.9,72.1 c 0,2.7 -0.3,4.9 -1.9,7.2 -1.6,2.3 -5.6,5.5 -6,5.4 -0.4,-0.1 -1.1,-0.8 -1.4,-1 15.9,-9.8 4.6,-22.2 0.7,-34.5 -3.9,-12.3 -0.6,-2.2 -0.7,-3.4 2.5,8.4 9,17.4 9.3,26.2 z" />
        <path
           style="fill:#f9f9e5"
           id="path104"
           d="M 57.5,83.4 C 50.4,84.9 46.7,90.3 45,97 c -0.3,0.2 -1.7,-0.9 -2.1,-1.2 0.7,-1 0.9,-2.8 1.5,-3.9 2.6,-5.2 6.8,-8.4 12.4,-9.6 0,0.5 0.2,0.9 0.6,1.1 z" />
        <path
           style="fill:#498f2e"
           id="path106"
           d="m 19,59.3 c 2,0.9 3.8,2.7 6.2,2.4 3.4,-0.5 0.2,-2.1 -1.3,-2.8 -1.5,-0.7 -1.9,-0.1 -0.7,-0.5 l -1.1,-0.9 c 2.7,1.6 5.5,2.3 7.7,4.6 2.2,2.3 2.7,4.7 3.3,7.4 C 32.4,68.4 32,67.2 31,66.3 26.8,62.6 21.9,65 19,59.3 Z" />
        <path
           style="fill:#498e2e"
           id="path108"
           d="m 65.9,86.5 c -0.9,0.1 -1.4,1.1 -1.1,2 l 2.7,2.8 c -0.6,0 -1.2,-0.2 -1.8,0 -3.6,-1.8 -4.7,-5.3 -8.6,-6.2 -3.9,-0.9 -1.5,0 -2.2,0 2.9,-1.4 7,-1.4 9.8,0.3 2.8,1.7 0.8,0.8 1.3,1.2 z" />
        <path
           style="fill:#e8edb6"
           id="path110"
           d="m 88.1,79.9 c -6,1.3 -10.2,2.9 -16.6,3.2 -2.8,0.1 -6.6,-0.4 -9.3,0 -2.7,0.4 -0.4,0 -0.6,0.1 -1.3,-0.2 -3,0 -4.2,0.3 -0.4,-0.2 -0.7,-0.6 -0.6,-1.1 7.2,-1.5 14.8,0.6 22.1,-0.6 7.3,-1.2 6,-1.6 9.2,-1.8 z" />
        <path
           style="fill:#4c932f"
           id="path112"
           d="M 29.4,60.3 C 28.5,58.8 26.2,58.7 24.7,58.1 23.2,57.5 23,57.2 22.2,56.9 l 5.9,1 -2.2,-5.9 c 2.3,2.2 3,6.3 4.8,9 z" />
        <path
           style="fill:#62a634"
           id="path114"
           d="m 40.4,71.8 c -0.4,0 -0.2,-0.1 -0.2,-0.4 0,-3.2 0.2,-6.2 -1.1,-9.2 0,0 1,-0.2 1.2,-0.2 1.3,3.2 1.1,6.5 0.2,9.9 z" />
        <path
           style="fill:#9bc43a"
           id="path116"
           d="m 30.5,39.5 c -0.5,0.2 -0.3,0 -0.3,-0.2 -0.6,-5.7 -4,-4.3 -7.4,-7.4 -3.4,-3.1 -1.8,-2.3 -2,-3.4 1.5,4.3 8.4,4.7 9.6,8.2 1.2,3.5 0,1.8 0,2.7 z" />
        <path
           style="fill:#8cbf36"
           id="path118"
           d="m 94.1,79.5 c -0.9,-1 -2.1,-1.1 -3.1,-2 -1.5,-1.2 -1.7,-3.3 -4.2,-2.6 -2.5,0.7 -1.8,1.1 -2.7,1.5 -0.9,0.4 -0.4,0.3 -0.6,-0.1 0.9,-0.5 1.8,-1.4 2.8,-1.9 3.6,-1.7 3.5,1.2 5.4,2.9 1.9,1.7 1.9,1.2 2.6,1.8 0,0.1 -0.1,0.3 -0.2,0.4 z" />
        <path
           style="fill:#85bd33"
           id="path120"
           d="m 75.9,88.4 c -1.8,3.9 -6.7,4.6 -10.2,2.8 0.6,-0.2 1.2,0 1.8,0 5.4,0.5 4.7,-1.2 8.4,-2.9 z" />
        <path
           style="fill:#97c337"
           id="path122"
           d="m 35.5,47.9 h -0.7 c 0.9,-2.5 0.8,-6.6 -2.9,-6.2 1.6,0 2.4,-0.8 3.8,1 1.4,1.8 0.2,3.5 0,5.2 z" />
        <path
           style="fill:#dbe285"
           id="path124"
           d="m 70,89.4 v 0.3 c -0.8,-0.6 -1.5,-1.3 -2.2,-2 -2,-1.9 -3.5,-3.8 -6.3,-4.6 h 0.2 c 0.3,0 0.5,0 0.5,0 4.1,0.9 4.8,4.1 7.8,6.3 z" />
        <path
           style="fill:#8bbe32"
           id="path126"
           d="m 89.7,86.5 c -1.2,1.9 -4.1,2.9 -6.4,2.9 0.1,-0.2 -0.2,-0.2 -0.3,-0.3 l 3.7,-0.9 2.9,-1.6 z" />
        <path
           style="fill:#488c2e"
           id="path128"
           d="m 26,49.5 c 0.2,0.5 0.2,1.2 0.5,1.8 -0.2,0 -1.3,-0.9 -1.6,-1 0.5,-1.4 -1,-2.9 -0.8,-4.3 0.9,1.2 1.5,2.1 2,3.5 z" />
        <path
           style="fill:#e6e99d"
           id="path130"
           d="m 29.4,60.3 c -2.6,-1.2 -5.3,-2.2 -8,-3.4 0,-0.3 0.7,0 0.8,0 0.8,0.3 1.7,0.9 2.5,1.2 1.5,0.5 3.8,0.6 4.7,2.2 z" />
        <path
           style="fill:#78b82f"
           id="path132"
           d="m 80.4,77.1 c 0,0 0,0.2 -0.2,0.2 -1.9,-0.4 -1.2,-3.2 -4.1,-4 -2.9,-0.8 -1.7,0 -2,0 1.4,-0.7 3.3,0 4.3,0.9 1,0.9 0.6,2.7 2,2.9 z" />
        <path
           style="fill:#e9edb6"
           id="path134"
           d="m 32.1,46.7 h 0.2 c -1,2.2 -2.3,5.5 -2.3,8 0,2.5 0.9,2.3 1.6,3.8 1.4,3.3 4.3,9.5 3.7,13 -0.6,3.5 -0.1,0.7 -0.4,0.6 -0.3,-8.7 -6.8,-17.7 -9.3,-26.2 -2.5,-8.5 -0.8,-3.1 -1,-4.7 v -1.8 c 0.9,4.9 2.7,9.5 4.9,14 0.5,-2.4 1.7,-4.5 2.7,-6.8 z" />
        <path
           style="fill:#203536"
           id="path136"
           d="m 31,55.3 c 1.6,4.4 5.2,8.5 5.7,13.5 l 2.3,-6 c 0,0.5 0,1 -0.2,1.7 -0.8,3.1 -2.1,9.7 -3.3,12.2 -1.2,2.5 -0.8,1.7 -1.5,2.2 4.5,-8.3 0,-16.9 -4,-24.3 0,-2.5 1.3,-5.8 2.3,-8 1,-2.2 0.2,-0.6 0.2,-0.8 0.6,-0.4 -0.9,3 -1,3.2 -0.6,1.9 -1.2,4.4 -0.6,6.3 z" />
        <path
           style="fill:#478929"
           id="path138"
           d="m 22.7,43.1 c -0.1,0.2 -0.3,0 -0.4,-0.1 0,-0.2 0.4,0 0.4,0.1 z" />
        <path
           style="fill:#1e3533"
           id="path140"
           d="m 89.7,79.4 c -0.4,0 -0.8,0.3 -1.2,0.3 -0.4,0 -0.3,0 -0.4,0 C 85,80 82,81 78.9,81.5 c -2,0 -4,0.1 -6,0 -4.8,-0.3 -9.5,-1.5 -14.3,-1 -7,0.8 -11.5,4.9 -14.8,11 0.6,-1.4 1.2,-3 1.9,-4.3 2.8,-4.8 6.9,-8.5 12.2,-10.1 -1.6,1.5 -5.2,2.4 -6.7,4.4 2.3,-1.2 4.7,-1.3 7.1,-1.8 2.4,-0.5 1.8,0 3.5,-1 1.7,-1 0.5,-0.4 0.7,-0.5 l -1.3,1.6 c 1.7,-0.2 4.2,0.6 5.8,0.2 0.3,0.4 0.4,0.2 0.7,0.2 1.9,-0.2 5.9,-2.8 7.2,-4.2 l -5.2,4.5 c 1.9,0.3 4.7,0.9 6.5,0.2 1.9,1.2 12.2,-2.3 13.3,-1.5 z" />
        <path
           style="fill:#40574e"
           id="path142"
           d="m 91.2,79.6 c 0,0 -0.5,-0.2 -0.5,-0.2 0,0 0.8,-0.1 0.8,-0.1 v 0.3 c 0,0 -0.3,0 -0.3,0 z" />
        <path
           style="fill:#cedc76"
           id="path144"
           d="m 50,74.3 c 0,0 0,0.1 0,0.2 l -1.9,1.7 c 0,-0.6 0.4,-1.8 0.6,-2.3 0.2,-0.5 0,-0.3 0.2,-0.4 l 1.1,0.7 z" />
        <path
           style="fill:#f1f3cf"
           id="path146"
           d="m 58.1,77.3 c -5.3,1.6 -9.4,5.3 -12.2,10.1 -2.8,4.8 -1.3,2.9 -1.9,4.3 -0.6,1.4 -1,3.2 -1.7,2.9 -0.7,-0.3 0.3,-2.8 0.5,-3.3 2.4,-6.8 7.4,-12.7 14.7,-14.2 0.3,0 0.7,0 1,-0.1 v 0.2 c 0,0 -0.2,0 -0.3,0.1 z" />
        <path
           style="fill:#4b9231"
           id="path148"
           d="m 66.1,84.7 c -0.3,-0.3 -0.9,-0.6 -1.3,-0.9 -0.1,-0.4 0,-0.2 0.2,-0.3 0.4,-0.1 7,0 8.2,0 0,0.4 0,0.4 -0.4,0.5 -1.9,0.4 -4.7,-0.3 -6.6,0.7 z" />
        <path
           style="fill:#f0f0ca"
           id="path150"
           d="m 75.1,76.2 c -1.3,1.4 -5.3,4 -7.2,4.2 l 7.5,-4.8 c 0.2,0.2 -0.2,0.5 -0.3,0.7 z" />
        <path
           style="fill:#194323"
           id="path152"
           d="m 67.9,80.4 c -0.3,0 -0.4,0.2 -0.7,-0.2 2.7,-0.6 5.8,-3.4 8.2,-4.7 l -7.5,4.8 z" />
        <path
           style="fill:#a5c950"
           id="path154"
           d="m 62.7,78.4 c -0.2,0.2 -0.5,0.4 -0.7,0.5 l -2.6,0.5 c 1.3,-0.6 2.6,-1.4 3.9,-2 1.3,-0.6 0.6,-0.4 1,-0.5 -0.5,0.6 -1.1,1 -1.6,1.4 z" />
        <path
           style="fill:#eaeeb8"
           id="path156"
           d="m 35.6,76.7 c 1.2,-2.5 2.5,-9.2 3.3,-12.2 0.6,-0.3 0.5,0.4 0.5,0.8 0,3.2 -1.2,9.4 -3.8,11.5 z" />
        <g
           id="g162">
          <path
             style="fill:#478b2e"
             id="path158"
             d="m 40.3,61.9 c -0.2,0 -1.1,0.2 -1.2,0.2 -0.1,0 0,0.4 0,0.6 l -2.3,6 c -0.5,-4.9 -4.2,-9.1 -5.7,-13.5 1.4,2 4.9,-1.3 4.8,-2.9 -0.1,-1.6 -0.5,-1.5 -0.5,-2.5 0.7,0.9 2.7,1.1 3.2,2 0.5,0.9 -0.3,3.5 -0.2,4.3 0.2,2.2 1.1,3.7 1.9,5.6 z" />
          <path
             style="fill:#6fb63a"
             id="path160"
             d="m 36.6,55.3 c -0.4,1.6 2.4,5.6 2.3,6.6 -0.1,1 -2,4.7 -2.3,4.7 -0.9,-3.8 -3.6,-8 0,-11.3 z" />
        </g>
        <path
           style="fill:#71b73a"
           id="path164"
           d="m 63.3,77.5 c -1.3,0.6 -2.5,1.4 -3.9,2 L 62,79 c -1.7,1 -1.9,0.7 -3.5,1 0,-2.1 3.2,-2.4 4.8,-2.4 z" />
        <g
           id="g172">
          <path
             style="fill:#224134"
             id="path166"
             d="m 32.1,46.7 c -0.9,2.2 -2.2,4.3 -2.7,6.8 -2.2,-4.5 -4,-9.1 -5,-14 v 1.8 c 0.3,1.6 0.6,3.1 1.1,4.7 0.1,1.1 0.4,2.3 0.7,3.4 l -0.3,0.3 c -0.5,-1.4 -1.1,-2.3 -2,-3.5 -1.4,-1.9 -3.2,-3.5 -4.5,-5.5 0.2,-0.1 1.4,1.5 1.7,1.7 1.3,1.3 2.7,2.6 4,3.8 l -0.2,-0.6 c -0.6,-0.7 -1.5,-1.3 -2.1,-1.9 l 2,1.3 C 24.3,41.1 23.9,37.2 22,33.7 c 1.8,2.8 2.7,6 3.7,9.1 l 2.2,-3.2 c 0.3,0.2 -1.2,5.4 -1.2,6.1 0,1.6 1.9,4.2 2.3,5.9 0.4,0.2 2.8,-5 3.4,-5.4 -0.1,0.2 -0.2,0.6 -0.2,0.7 z" />
          <path
             style="fill:#e0e9ab"
             id="path168"
             d="m 22.2,42.9 c 0.1,0 0.3,0.3 0.4,0.1 0.1,0.2 -0.1,0.2 0.2,0.5 0.6,0.7 1.5,1.3 2.1,1.9 l 0.2,0.6 c -1.3,-1.2 -2.7,-2.5 -4,-3.8 0.4,0 0.7,0.5 1,0.7 z" />
          <path
             style="fill:#dae38c"
             id="path170"
             d="m 27.6,40.4 -1.5,3.7 c -0.3,0 1.3,-3.3 1.5,-3.7 z" />
        </g>
        <path
           style="fill:#50832d"
           id="path174"
           d="m 62.2,83.1 c 0,0 -0.2,0 -0.5,0 0.2,-0.2 0.4,0 0.6,-0.1 v 0 z" />
        <g
           id="g186">
          <path
             style="fill:#1e3b31"
             id="path176"
             d="m 90.6,79.4 c 0,0 -0.4,0.1 -0.4,0.2 h 0.6 c -3.3,1 -6.7,1.7 -9.9,2.8 0.7,1.9 3,2.3 4.5,3.2 -0.1,0.3 -5.2,-1.4 -5.7,-1.6 -0.5,-0.2 -0.9,-0.9 -1.5,-1 -0.6,-0.1 -2.9,0.4 -3.8,0.5 -0.9,0.1 -0.8,0 -1.2,0 -1.1,0 -7.8,-0.1 -8.2,0 -0.4,0.1 -0.4,0 -0.2,0.3 0.4,0.3 1,0.6 1.3,0.9 1.4,1.4 2.4,3.2 3.9,4.7 -3,-2.3 -3.7,-5.5 -7.8,-6.3 v 0 c 2.7,-0.5 6.5,0 9.3,0 6.4,-0.3 10.6,-1.9 16.6,-3.2 6,-1.3 0.3,0 0.4,0 0.3,0.2 1.8,0 1.2,-0.3 0.4,0 0.5,0 0.9,0 z" />
          <path
             style="fill:#769963"
             id="path178"
             d="m 91.2,79.6 c -0.2,0.1 -0.3,0 -0.4,0 h -0.6 c 0,-0.2 0.4,-0.3 0.4,-0.3 0,0 0.4,0.2 0.5,0.2 z" />
          <path
             style="fill:#e9ecad"
             id="path180"
             d="m 88.5,79.8 c 0.4,0 0.8,-0.3 1.2,-0.3 0.6,0.3 -0.9,0.5 -1.2,0.3 z" />
          <path
             style="fill:#e9eec5"
             id="path182"
             d="m 82.4,84.4 c 0.2,0.1 0.5,0.3 0.6,0.5 0,0.2 -3.9,-1.7 -4.1,-2.1 1.1,0.5 2.5,1 3.5,1.6 z" />
          <path
             style="fill:#d4c6b5"
             id="path184"
             d="m 83.3,84.8 h 0.1 c 0.2,0.2 0.1,0.4 0,0.2 v -0.2 z" />
        </g>
      </g>
    </g>
  </g>
</svg>
